# xmcd
#
# Track frame offsets:
#	150
#	29151
#	47818
#	61266
#	73687
#	89355
#
# Disc length: 1472 seconds
#
# Revision: 1
# Processed by: cddbd v1.5.2PL0 Copyright (c) Steve Scherf et al.
# Submitted via: audiograbber 1.83.01
#
DISCID=5305be06
DTITLE=The Miner's Shack - Bisbee AZ - so it ain't perfect  - it's Bisbee
DYEAR=1900
DGENRE=
TTITLE0=Bisbee AZ
TTITLE1=Drift Away
TTITLE2=Whirlwind Affair
TTITLE3=Takin' That Freeway Outa' Here
TTITLE4=Day at a Time
TTITLE5=Painter's Palette
EXTD=Produced by Jasko's High Tech Heaven - Joliet II \n                       
EXTD= for \n          The Miner's Shack - Bisbee AZ  \n   © Christian
EXTD=Blessing and Jeffrey Jaskowiak
EXTT0=
EXTT1=
EXTT2=
EXTT3=
EXTT4=
EXTT5=
PLAYORDER=
